<?xml version="1.0" encoding="utf-8"?>
<!-- Generator: Adobe Illustrator 16.0.0, SVG Export Plug-In . SVG Version: 6.00 Build 0)  -->
<!DOCTYPE svg PUBLIC "-//W3C//DTD SVG 1.1//EN" "http://www.w3.org/Graphics/SVG/1.1/DTD/svg11.dtd">
<svg version="1.1" id="Livello_1" xmlns="http://www.w3.org/2000/svg" xmlns:xlink="http://www.w3.org/1999/xlink" x="0px" y="0px"
	 width="44.167px" height="44.833px" viewBox="0 0 44.167 44.833" enable-background="new 0 0 44.167 44.833" xml:space="preserve">
<g display="none">
	<circle display="inline" fill="#666666" cx="22.084" cy="22.417" r="20.998"/>
	<g display="inline">
		<rect x="23.378" y="14.478" fill-rule="evenodd" clip-rule="evenodd" fill="#BBBBBB" width="3.836" height="20.694"/>
		<rect x="17.357" y="18.848" fill-rule="evenodd" clip-rule="evenodd" fill="#DDDDDD" width="3.835" height="16.324"/>
		<rect x="10.976" y="21.881" fill-rule="evenodd" clip-rule="evenodd" fill="#FFFFFF" width="3.836" height="13.291"/>
		<rect x="29.355" y="9.661" fill-rule="evenodd" clip-rule="evenodd" fill="#AAAAAA" width="3.836" height="25.512"/>
	</g>
</g>
<g display="none">
	<circle display="inline" fill="#666666" cx="22.101" cy="22.435" r="20.998"/>
	<g display="inline">
		<rect x="18.762" y="20.245" fill="#CCCCCC" width="2.644" height="2.333"/>
		<rect x="22.837" y="20.245" fill="#CCCCCC" width="2.646" height="2.333"/>
		<rect x="27.001" y="20.245" fill="#CCCCCC" width="2.648" height="2.333"/>
		<rect x="18.755" y="23.917" fill="#CCCCCC" width="2.646" height="2.332"/>
		<rect x="22.83" y="23.917" fill="#CCCCCC" width="2.646" height="2.332"/>
		<rect x="26.998" y="23.917" fill="#CCCCCC" width="2.645" height="2.332"/>
		<rect x="18.762" y="27.743" fill="#CCCCCC" width="2.644" height="2.331"/>
		<rect x="14.556" y="23.917" fill="#CCCCCC" width="2.643" height="2.332"/>
		<rect x="14.562" y="27.743" fill="#CCCCCC" width="2.643" height="2.331"/>
		<rect x="22.837" y="27.743" fill="#CCCCCC" width="2.646" height="2.331"/>
		<rect x="27.001" y="27.743" fill="#CCCCCC" width="2.648" height="2.331"/>
		<path fill="#CCCCCC" d="M33.824,12.734l-3.314,0.003v2.106h-3.17V12.74L17.296,12.75v2.17H14.13v-2.167l-3.775,0.003v21.017h1.679
			h20.14l1.676-0.006L33.824,12.734z M32.174,32.1h-20.14V18.673h20.14V32.1z"/>
		<rect x="14.757" y="11.097" fill="#CCCCCC" width="1.982" height="3.274"/>
		<rect x="27.935" y="11.097" fill="#CCCCCC" width="1.982" height="3.274"/>
	</g>
</g>
<g display="none">
	<circle display="inline" fill="#666666" cx="22.092" cy="22.207" r="20.998"/>
	<path display="inline" fill="#CCCCCC" d="M13.231,20.068l-0.117-0.178h-0.176l-0.176-0.059l-0.178,0.118h-0.233l0.233-0.352v-0.353
		l-0.058-0.235l-0.294-0.352c0,0,0.118-0.292,0.059-0.292h-0.293l-0.352-0.411l-0.352-0.06l0.058-0.293l0.293-0.234v-0.176
		l0.234-0.234l-0.293-0.47h-0.234l-0.294-0.058l-0.176-0.234l-0.234,0.234l-0.118,0.352l0.118,0.293l0.117,0.293l-0.234,0.353
		l-0.586,0.586L9.241,19.01l0.294,0.88l-0.352,0.47v0.293l0.234,0.587l0.528,0.116l0.117,0.235l-0.117,0.411h0.293l-0.059,0.233
		l0.083,0.14l0.093,0.154l-0.294-0.058l0.118,0.176l0.352,0.469l-0.058,0.234l0.058,0.411l0.118,0.175l0.058,0.293l0.352,0.06
		l0.176,0.176l0.528,1.172l-0.41,0.177l-0.236-0.059l-0.468,0.176l0.292,0.294l-0.234,0.234l-0.058,0.352l-0.176,0.117l-0.293,0.059
		l-0.177-0.352l-0.176-0.234l-0.117-0.234l-0.353,0.116l-0.293-0.175l-0.234,0.233l0.059,0.235l-0.176,0.234l-0.176,0.176
		l0.176,0.06l0.234,0.292l-0.117,0.177l0.293,0.175l-0.293,0.178l0.468,0.234l-0.116,0.293l-0.177,0.116l0.352,0.294l0.06,0.233
		l0.176,0.06l0.059,0.293l0.234,0.41l-0.118,0.47l0.412,0.176l0.293-0.176l0.176,0.176l0.176,0.176l0.292,0.059l0.324-0.353
		l0.44-0.175l0.235-0.177l0.176,0.352l-0.059,0.353l0.236,0.293l0.293-0.058l0.176,0.352l-0.06,0.233l0.294,0.295l0.233,0.352
		l0.354,0.117l0.117,0.234l-0.235,0.294l0.177,0.233l0.177,0.176l0.293,0.118l0.41-0.176l0.118,0.41l0.118,0.352l0.292,0.117v0.235
		l-0.058,0.352l-0.118,0.352l0.353-0.06l0.058-0.408l0.234,0.468l0.529-0.116l-0.119-0.352l0.236-0.176l-0.47-0.353v-0.176
		l0.234-0.118v-0.176l0.412-0.294l-0.058-0.352L16.342,32.5l-0.352-0.058l-0.178-0.294l0.06-0.471l0.294-0.057l0.116-0.527
		l0.12-0.236l0.234-0.117v-0.526l0.352-0.47l0.41-0.177l0.469-0.117l0.294,0.234l0.116-0.234l-0.174-0.293l0.233-0.118l0.294,0.411
		l0.293-0.411l0.176,0.294l0.059,0.352l0.235,0.06l0.292,0.233l0.235-0.116l0.235-0.294v-0.293l0.292,0.293l0.294,0.177
		l-0.059,0.233l0.235,0.118v-0.528l0.176-0.059l0.235,0.176h0.176l-0.176-0.41l0.059-0.176l0.235-0.176l0.058,0.293l0.177,0.176
		l0.175-0.293l0.237-0.117l0.233,0.293l0.177,0.293l-0.059,0.234l0.233,0.118v0.294l0.354-0.118l0.058,0.293h0.293l0.176-0.117
		l0.235-0.117l0.294,0.234l0.117-0.175l0.177,0.115l0.175,0.118l0.118,0.176l0.176,0.059l0.293,0.059l0.176,0.177l0.235,0.177
		l0.177-0.119l0.176-0.117l0.234,0.06l0.059,0.293l0.059,0.292h0.41l0.293,0.235l0.176,0.116l0.294-0.057h0.293l0.292-0.176
		l0.119-0.236l0.234-0.291l0.178-0.295l0.176,0.354l0.176-0.412l0.233,0.177v0.409l0.586,0.119l0.353,0.057l0.469,0.235l0.353-0.176
		l0.293-0.116l0.234-0.235h0.294l0.352,0.059l0.057-0.175h0.294l0.294,0.175l0.292,0.058l0.646-0.058l0.292-0.059l0.353-0.116h0.469
		l0.47,0.116l0.235-0.116l-0.118-0.177l-0.293-0.118l-0.41-0.176l-0.587-0.352l-0.119-0.234v-0.235l-0.176,0.176
		c0,0-0.204,0-0.234-0.058c-0.03-0.059-0.234-0.235-0.234-0.235l-0.235,0.117v-0.234l0.059-0.234l0.293-0.234l-0.234-0.06
		l-0.352-0.175l-0.177,0.352l-0.235-0.177l-0.176,0.177l-0.293-0.059l-0.234-0.176l0.176-0.234l0.176-0.176H31.95h-0.233
		l-0.177-0.06v-0.233l-0.117-0.352l-0.352-0.059l-0.06-0.353h-0.235l-0.118-0.235h-0.175h-0.235l-0.176-0.352l-0.294-0.176
		l-0.175-0.234l-0.47,0.353l-0.058-0.353H28.9v-0.235l-0.176-0.175l0.115-0.353l0.118-0.352v-0.234h-0.232h-0.237l-0.234-0.352
		l-0.06-0.646l-0.059-0.997l-0.058-0.352l0.176-0.411l0.411-0.528l0.528-0.82l0.352-0.528l0.059-0.234l0.234-0.233l0.117-0.236
		l-0.176-0.115h-0.234l-0.177-0.06l-0.175,0.117l-0.236-0.117l-0.232,0.117l-0.412,0.058l-0.059,0.412l-0.236-0.118l-0.233,0.118
		l-0.176,0.176l-0.294,0.058l-0.176-0.293l0.059-0.176l-0.292-0.177l-0.059-0.469l-0.117-0.234l0.176-0.234l0.059-0.176
		l-0.176-0.117l-0.118-0.234l0.06-0.353h-0.236l-0.117-0.47l0.353-0.176l-0.06-0.293V16.84l0.47-0.585l0.119-0.294l-0.06-0.177
		l0.118-0.232v-0.178l-0.118-0.234v-0.176l0.177-0.118v-0.175l0.117-0.353l-0.176-0.352l0.176-0.234l-0.176-0.41l-0.176-0.117
		h-0.293V13.03l0.235-0.059l0.234-0.295l0.294,0.059l0.234-0.292l-0.059-0.176v-0.528l-0.235-0.234l-0.235-0.117l-0.176-0.176
		h-0.586l-0.292-0.177V10.8l-0.236-0.293l-0.177-0.059l-0.175,0.116l-0.235-0.116l-0.211,0.118l-0.316-0.002l-0.118-0.233
		l-0.176-0.118h-0.235V9.98l0.117-0.234l-0.176-0.295L24.087,9.57h-0.235l-0.177,0.058L23.5,9.746h-0.411v0.41
		c0,0-0.264,0.469-0.292,0.409c-0.029-0.058-0.235,0.06-0.235,0.06l0.059,0.235l-0.059,0.232l0.059,0.353l0.117,0.235
		c0,0-0.235,0.293-0.235,0.234s0.294,0.177,0.294,0.177l0.352,0.116l0.234-0.234l0.235,0.352l0.118,0.295l-0.292,0.115l-0.118,0.295
		l-0.117,0.352l0.235,0.352l0.292,0.293l0.118,0.353l-0.293,0.116L23.5,14.789l-0.234-0.059h-0.235l-0.234,0.116l-0.176-0.116
		l0.117-0.411l-0.292-0.176l-0.294-0.117l0.059-0.234v-0.176l-0.178-0.177l0.178-0.175l-0.117-0.234l-0.295-0.235l-0.234,0.117
		l-0.176-0.177l-0.235,0.177l-0.293,0.06l-0.353,0.293l-0.411,0.059l-0.235-0.176l-0.176,0.234l0.059,0.293l-0.118,0.352
		l-0.234-0.234l-0.353,0.176h-0.292l-0.471-0.176l-0.233,0.118l-0.294-0.822l-0.353-0.233l0.059-0.234l-0.117-0.295l-0.004-0.41
		l0.121-0.47l-0.059-0.293l-0.175,0.177h-0.177l-0.058,0.293h-0.176l-0.235-0.177v-0.233l-0.234-0.06L15.93,11.27l-0.235,0.175
		v0.411l-0.176,0.059l-0.059,0.293l0.293,0.117v0.295l-0.059,0.292l0.235,0.235v0.352l-0.176,0.176l-0.059,0.352l-0.176,0.293v0.353
		l-0.234,0.059l-0.176,0.352l-0.118,0.293l-0.235,0.178l-0.41,0.352l-0.235,0.176l-0.235,0.176l0.059,0.41L13.877,16.9l-0.235,0.059
		l-0.292,0.234v0.41l0.058,0.235l-0.292,0.292l0.235,0.117v0.294l0.292,0.177l0.294,0.292l-0.059,0.235l-0.176,0.234l-0.176,0.41
		l-0.071,0.196L13.231,20.068z"/>
</g>
<g display="none">
	<circle display="inline" fill="#666666" cx="22.092" cy="22.207" r="20.997"/>
	<g display="inline">
		<path fill="#CCCCCC" d="M33.683,31.642H10.489c-0.639,0-1.159,0.521-1.159,1.162c0,0.64,0.521,1.158,1.159,1.158h23.194
			c0.643,0,1.16-0.519,1.16-1.158C34.841,32.163,34.325,31.642,33.683,31.642L33.683,31.642z M33.683,31.642"/>
		<path fill="#CCCCCC" d="M11.939,28.628c-0.642,0-1.158,0.52-1.158,1.158c0,0.641,0.517,1.162,1.158,1.162h20.292
			c0.643,0,1.162-0.521,1.162-1.162c0-0.639-0.52-1.158-1.162-1.158h-0.289V18.192h0.289c0.322,0,0.582-0.26,0.582-0.581
			c0-0.318-0.26-0.579-0.582-0.579H11.939c-0.32,0-0.577,0.261-0.577,0.579c0,0.321,0.257,0.581,0.577,0.581h0.289v10.437H11.939z
			 M29.623,18.192v10.437h-3.479V18.192H29.623z M23.826,18.192v10.437h-3.479V18.192H23.826z M14.548,18.192h3.479v10.437h-3.479
			V18.192z M14.548,18.192"/>
		<path fill="#CCCCCC" d="M10.489,15.991h23.204c0.643,0,1.162-0.52,1.162-1.161c0-0.51-0.328-0.941-0.785-1.098L22.562,8.553
			c-0.303-0.137-0.648-0.137-0.949,0l-11.599,5.218c-0.499,0.225-0.774,0.769-0.657,1.302C9.47,15.608,9.943,15.991,10.489,15.991
			L10.489,15.991z M10.489,15.991"/>
	</g>
</g>
<g display="none">
	<circle display="inline" fill="#666666" cx="22.083" cy="22.207" r="20.998"/>
	<path display="inline" fill="#CCCCCC" d="M35.061,22.206c0-7.168-5.811-12.977-12.978-12.977S9.105,15.038,9.105,22.206
		s5.811,12.979,12.978,12.979S35.061,29.374,35.061,22.206z M26.961,14.379l0.928-0.621c0,0-0.391-0.998-0.324-1.488
		c0.226-0.109,1.141,0.369,1.912,1.182c-0.521,1.936-1.739,1.703-1.739,1.703S26.844,15.135,26.961,14.379z M19.139,25.805
		c-0.058,0.291-0.406,0.988-0.638,1.453c-0.232,0.465-0.349,0.637-0.64,0.869c-0.289,0.238-0.464,0.641-0.464,0.641l-0.057,0.986
		c0,0,0.113,0.814,0.287,1.107c0.175,0.287-0.622,2.02-0.622,2.02c-0.504-0.104-0.785-0.688-0.96-1.15
		c-0.175-0.467-0.406-0.711-0.347-1.232c0.058-0.523-0.453-0.799-0.625-1.09c-0.174-0.295-0.408-0.697-0.408-0.99
		c0-0.291-0.638-0.695-0.638-0.695s-1.162-0.523-1.335-0.756c-0.175-0.232-0.351-1.225-0.408-1.627
		c-0.057-0.404,0.175-1.449,0.175-1.449s0.468-0.354,0.172-0.643c-0.291-0.289-0.348-1.047-0.348-1.047l-0.525-0.578
		c0,0-0.406-0.578-0.461-0.871c-0.06-0.291,0-0.465,0.055-0.756c0.059-0.295-0.115-0.814-0.115-1.102
		c2.17-5.328,5.809-6.566,5.809-6.566l0.292,1.219c0,0-0.638,0.172-0.987,0.059c-0.349-0.117-0.524-0.117-0.524-0.117l-0.464,0.639
		c0,0-0.175,0.408-0.235,0.641c-0.056,0.23,0.115,0.58,0.115,0.58s0.815,0.059,0.815-0.176c0-0.232-0.115-0.346-0.115-0.346
		l-0.116-0.408c0,0,0.524-0.291,1.916-0.176c1.395,0.117,0.874,1.105,1.456,1.34c0.581,0.232-0.467,1.043-0.699,1.508
		c-0.232,0.465-0.581-0.584-0.581-0.584s0.349-0.4-0.232-0.52c-0.582-0.113-0.966,1.045-0.672,0.99
		c0.29-0.059,0.614,0.313,0.556,0.6c-0.059,0.291-0.059,0.27-0.351,0.908c-0.29,0.641-0.92,1.111-0.92,1.111
		s-0.297-0.182-0.125,0.168c0.177,0.348-0.058,1.164-0.058,1.393c0,0.232-0.697-0.404-0.812-0.986
		c-0.118-0.58-0.799-0.076-1.031-0.018c-0.234,0.061-0.656-0.102-0.771-0.389c-0.116-0.291-1.165,0.58-1.456,0.754
		c-0.291,0.172-0.171,0.639,0.291,0.41c0.465-0.238,0.871-0.061,0.757,0.408c-0.117,0.459-0.581,0.172-0.522,0.459
		c0.056,0.291,0.522,0.584,0.636,0.99c0.118,0.404,1.223,0.059,1.57-0.115c0.348-0.176,1.337-0.352,1.453,0.115
		c0.119,0.463,1.221,0.637,1.626,0.752c0.408,0.117,1.221,0.172,1.686,0.641C20.011,24.645,19.2,25.514,19.139,25.805z
		 M21.752,12.211c-0.06,0.578-0.985,1.336-0.87,1.57c0.117,0.234,0,1.227-0.814,0.355c-0.813-0.871-1.628-1.168-1.567-1.752
		c0.013-0.115,0.841-0.301,0.854-0.502c1.233-1.146,3.2-0.908,3.349-0.641C22.354,11.823,21.811,11.627,21.752,12.211z
		 M28.879,31.17c-0.619-0.621-0.309-1.162-0.309-1.162l0.173-0.93l0.099-1.57c0,0,0-1.623-1.55-0.85
		c-1.665,0.422-0.972,0.422-2.655,0.541c-1.684,0.113-1.404-3.436-1.404-3.436c0-5.316,4.076-1.305,4.076-1.305
		c2.326,1.549,2.637-1.285,2.637-1.285l1.701-0.611l0.156-0.779L31.557,18.7l-2.477-1.02c0,0-0.238,0.805,0.396,1.793
		c0,0-0.212,1.123-0.733,0.832l-1.435-0.721c0,0-0.482-0.209-1.257,0.256c-0.775,0.465-2.089-0.021-2.089-0.021
		s0.107-0.777,0.922-1.182l0.666-0.441c0,0-0.174-0.797-0.022-1.414c0.153-0.621,0.427-0.076,1.046-0.541s1.047,0.908,1.975,0.752
		c0.928-0.152,0.465-0.307,1.086-0.617s1.083,0.617,1.083,0.617l1.239,0.156c0,0-0.193-1.402-0.109-1.039
		c0.785,1.35,1.935,4.945,1.509,5.586c-0.256-0.113-0.47-0.209-0.47-0.209h-1.55l0.929,1.086c0,0,0.45,0.66,1.086,0.617
		C32.934,28.049,28.879,31.17,28.879,31.17z"/>
</g>
<g>
	<circle fill="#666666" cx="22.083" cy="22.207" r="20.997"/>
	<g>
		<path fill-rule="evenodd" clip-rule="evenodd" fill="#CCCCCC" d="M23.215,11.333v-0.526h0.738V9.451h-3.662v1.356h0.66v0.526
			c-2.793,0.265-5.303,1.498-7.189,3.362l-0.297-0.297l0.438-0.438l-0.504-0.503l-1.582,1.582l0.504,0.504l0.461-0.462l0.324,0.325
			c-1.781,2.072-2.865,4.763-2.865,7.712c0,6.54,5.303,11.843,11.844,11.843c6.539,0,11.841-5.303,11.841-11.843
			C33.926,16.961,29.225,11.904,23.215,11.333z M22.586,32.999v-1.768c0-0.277-0.225-0.501-0.502-0.501s-0.504,0.224-0.504,0.501
			v1.768c-5.066-0.256-9.119-4.309-9.375-9.376h1.686c0.279,0,0.504-0.224,0.504-0.503c0-0.277-0.225-0.503-0.504-0.503h-1.686
			c0.256-5.068,4.313-9.122,9.381-9.375c0,0.007-0.006,0.014-0.006,0.022v1.842c0,0.278,0.227,0.503,0.504,0.503
			s0.502-0.225,0.502-0.503v-1.842c0-0.009-0.004-0.016-0.004-0.022c5.068,0.253,9.123,4.307,9.378,9.375H30.26
			c-0.277,0-0.501,0.226-0.501,0.503c0,0.279,0.224,0.503,0.501,0.503h1.701C31.705,28.69,27.653,32.743,22.586,32.999z"/>
		<path fill-rule="evenodd" clip-rule="evenodd" fill="#CCCCCC" d="M23.01,23.513c0.035-0.101,0.064-0.201,0.064-0.313
			c0-0.548-0.443-0.99-0.99-0.99s-0.99,0.442-0.99,0.99c0,0.547,0.443,0.99,0.99,0.99c0.053,0,0.098-0.022,0.148-0.03
			c0.01,0.01,0.014,0.021,0.023,0.03l4.1,3.558l1.104,0.292l-0.547-1.142L23.01,23.513z"/>
	</g>
</g>
</svg>
