<?xml version="1.0" encoding="utf-8"?>
<!-- Generator: Adobe Illustrator 21.1.0, SVG Export Plug-In . SVG Version: 6.00 Build 0)  -->
<svg version="1.1" xmlns="http://www.w3.org/2000/svg" xmlns:xlink="http://www.w3.org/1999/xlink" x="0px" y="0px"
	 viewBox="0 0 50 50" style="enable-background:new 0 0 50 50;" xml:space="preserve">
<style type="text/css">
	.st0{display:none;}
	.st1{display:inline;}
	.st2{fill:#FFFFFF;}
</style>
<g id="Livello_1" class="st0">
	<path id="Blue_13_" class="st1" d="M47.2,50c1.5,0,2.8-1.2,2.8-2.8V2.8C50,1.2,48.8,0,47.2,0H2.8C1.2,0,0,1.2,0,2.8v44.5
		C0,48.8,1.2,50,2.8,50H47.2z"/>
	<path id="Triangle_1_" class="st1" d="M21.6,28.9l9-4.6l-9-4.7V28.9z"/>
	<g id="Lozenge_2_" class="st1">
		<g>
			<path class="st2" d="M41.3,18c0,0-0.3-2.3-1.3-3.3c-1.3-1.3-2.7-1.3-3.3-1.4C32,13,25,13,25,13h0c0,0-7,0-11.6,0.3
				c-0.6,0.1-2.1,0.1-3.3,1.4c-1,1-1.3,3.3-1.3,3.3s-0.3,2.7-0.3,5.4v2.5c0,2.7,0.3,5.4,0.3,5.4s0.3,2.3,1.3,3.3
				c1.3,1.3,2.9,1.3,3.7,1.4c2.7,0.3,11.3,0.3,11.3,0.3s7,0,11.6-0.3c0.6-0.1,2.1-0.1,3.3-1.4c1-1,1.3-3.3,1.3-3.3s0.3-2.7,0.3-5.4
				v-2.5C41.6,20.7,41.3,18,41.3,18z M21.6,28.9l0-9.3l9,4.7L21.6,28.9z"/>
		</g>
	</g>
</g>
<g id="Livello_2">
	<path id="Blue_19_" d="M47.3,50c1.5,0,2.8-1.2,2.8-2.8V2.7c0-1.5-1.2-2.8-2.8-2.8H2.8C1.2-0.1,0,1.1,0,2.7v44.6
		C0,48.8,1.2,50,2.8,50H47.3z"/>
	<path id="f_1_" class="st2" d="M34.6,50V30.6h6.5l1-7.6h-7.5v-4.8c0-2.2,0.6-3.7,3.7-3.7l4,0V7.8c-0.7-0.1-3.1-0.3-5.8-0.3
		c-5.8,0-9.7,3.5-9.7,10V23h-6.5v7.6h6.5V50H34.6z"/>
</g>
</svg>
