<?xml version="1.0" encoding="utf-8"?>
<!-- Generator: Adobe Illustrator 21.1.0, SVG Export Plug-In . SVG Version: 6.00 Build 0)  -->
<svg version="1.1" xmlns="http://www.w3.org/2000/svg" xmlns:xlink="http://www.w3.org/1999/xlink" x="0px" y="0px"
	 viewBox="0 0 50 50" style="enable-background:new 0 0 50 50;" xml:space="preserve">
<style type="text/css">
	.st0{display:none;}
	.st1{display:inline;}
	.st2{fill:#FFFFFF;}
	.st3{display:inline;fill:#FFFFFF;}
</style>
<g id="Livello_1" class="st0">
	<path id="Blue_13_" class="st1" d="M47.2,50c1.5,0,2.8-1.2,2.8-2.8V2.8C50,1.2,48.8,0,47.2,0H2.8C1.2,0,0,1.2,0,2.8v44.5
		C0,48.8,1.2,50,2.8,50H47.2z"/>
	<path id="Triangle_1_" class="st1" d="M21.6,28.9l9-4.6l-9-4.7V28.9z"/>
	<g id="Lozenge_2_" class="st1">
		<g>
			<path class="st2" d="M41.3,18c0,0-0.3-2.3-1.3-3.3c-1.3-1.3-2.7-1.3-3.3-1.4C32,13,25,13,25,13h0c0,0-7,0-11.6,0.3
				c-0.6,0.1-2.1,0.1-3.3,1.4c-1,1-1.3,3.3-1.3,3.3s-0.3,2.7-0.3,5.4v2.5c0,2.7,0.3,5.4,0.3,5.4s0.3,2.3,1.3,3.3
				c1.3,1.3,2.9,1.3,3.7,1.4c2.7,0.3,11.3,0.3,11.3,0.3s7,0,11.6-0.3c0.6-0.1,2.1-0.1,3.3-1.4c1-1,1.3-3.3,1.3-3.3s0.3-2.7,0.3-5.4
				v-2.5C41.6,20.7,41.3,18,41.3,18z M21.6,28.9l0-9.3l9,4.7L21.6,28.9z"/>
		</g>
	</g>
</g>
<g id="Livello_2" class="st0">
	<path id="Blue_19_" class="st1" d="M47.3,50c1.5,0,2.8-1.2,2.8-2.8V2.7c0-1.5-1.2-2.8-2.8-2.8H2.8C1.2-0.1,0,1.1,0,2.7v44.6
		C0,48.8,1.2,50,2.8,50H47.3z"/>
	<path id="f_1_" class="st3" d="M34.6,50V30.6h6.5l1-7.6h-7.5v-4.8c0-2.2,0.6-3.7,3.7-3.7l4,0V7.8c-0.7-0.1-3.1-0.3-5.8-0.3
		c-5.8,0-9.7,3.5-9.7,10V23h-6.5v7.6h6.5V50H34.6z"/>
</g>
<g id="Livello_3" class="st0">
	<path id="Blue_3_" class="st1" d="M47.2,50c1.5,0,2.8-1.2,2.8-2.8V2.8C50,1.2,48.8,0,47.2,0H2.7C1.2,0,0,1.2,0,2.8v44.5
		C0,48.8,1.2,50,2.7,50H47.2z"/>
	<path class="st3" d="M19.3,37.4c11.6,0,17.9-9.6,17.9-17.9c0-0.3,0-0.5,0-0.8c1.2-0.9,2.3-2,3.1-3.3c-1.1,0.5-2.3,0.8-3.6,1
		c1.3-0.8,2.3-2,2.8-3.5c-1.2,0.7-2.6,1.2-4,1.5c-1.1-1.2-2.8-2-4.6-2c-3.5,0-6.3,2.8-6.3,6.3c0,0.5,0.1,1,0.2,1.4
		c-5.2-0.3-9.8-2.8-12.9-6.6c-0.5,0.9-0.9,2-0.9,3.2c0,2.2,1.1,4.1,2.8,5.2c-1,0-2-0.3-2.8-0.8c0,0,0,0.1,0,0.1c0,3,2.2,5.6,5,6.2
		c-0.5,0.1-1.1,0.2-1.7,0.2c-0.4,0-0.8,0-1.2-0.1c0.8,2.5,3.1,4.3,5.9,4.4c-2.1,1.7-4.9,2.7-7.8,2.7c-0.5,0-1,0-1.5-0.1
		C12.5,36.4,15.8,37.4,19.3,37.4"/>
</g>
<g id="Livello_4" class="st0">
	<path id="Blue_11_" class="st1" d="M47.2,50c1.5,0,2.8-1.2,2.8-2.8V2.8C50,1.2,48.8,0,47.2,0H2.8C1.2,0,0,1.2,0,2.8v44.5
		C0,48.8,1.2,50,2.8,50H47.2z"/>
	<g class="st1">
		<path class="st2" d="M25,8.9c-4.4,0-4.9,0-6.7,0.1c-1.7,0.1-2.9,0.4-3.9,0.8c-1.1,0.4-2,1-2.9,1.9c-0.9,0.9-1.4,1.8-1.9,2.9
			c-0.4,1-0.7,2.2-0.8,3.9c-0.1,1.7-0.1,2.3-0.1,6.7c0,4.4,0,4.9,0.1,6.7c0.1,1.7,0.4,2.9,0.8,3.9c0.4,1.1,1,2,1.9,2.9
			c0.9,0.9,1.8,1.4,2.9,1.9c1,0.4,2.2,0.7,3.9,0.7c1.7,0.1,2.3,0.1,6.7,0.1c4.4,0,4.9,0,6.7-0.1c1.7-0.1,2.9-0.4,3.9-0.7
			c1.1-0.4,2-1,2.9-1.9c0.9-0.9,1.5-1.8,1.9-2.9c0.4-1,0.7-2.2,0.8-3.9c0.1-1.7,0.1-2.3,0.1-6.7c0-4.4,0-4.9-0.1-6.7
			c-0.1-1.7-0.4-2.9-0.8-3.9c-0.4-1.1-1-2-1.9-2.9c-0.9-0.9-1.8-1.5-2.9-1.9c-1-0.4-2.2-0.7-3.9-0.8C29.9,8.9,29.4,8.9,25,8.9
			 M25,11.8c4.3,0,4.8,0,6.5,0.1c1.6,0.1,2.4,0.3,3,0.6c0.8,0.3,1.3,0.6,1.9,1.2c0.6,0.6,0.9,1.1,1.2,1.9c0.2,0.6,0.5,1.4,0.6,3
			c0.1,1.7,0.1,2.2,0.1,6.5c0,4.3,0,4.8-0.1,6.5c-0.1,1.6-0.3,2.4-0.6,3c-0.3,0.8-0.6,1.3-1.2,1.9c-0.6,0.6-1.1,0.9-1.9,1.2
			c-0.6,0.2-1.4,0.5-3,0.6c-1.7,0.1-2.2,0.1-6.5,0.1c-4.3,0-4.8,0-6.5-0.1c-1.6-0.1-2.4-0.3-3-0.6c-0.8-0.3-1.3-0.6-1.9-1.2
			c-0.6-0.6-0.9-1.1-1.2-1.9c-0.2-0.6-0.5-1.4-0.6-3c-0.1-1.7-0.1-2.2-0.1-6.5c0-4.3,0-4.8,0.1-6.5c0.1-1.6,0.3-2.4,0.6-3
			c0.3-0.8,0.6-1.3,1.2-1.9c0.6-0.6,1.1-0.9,1.9-1.2c0.6-0.2,1.4-0.5,3-0.6C20.2,11.8,20.7,11.8,25,11.8"/>
		<path class="st2" d="M25,30.4c-3,0-5.4-2.4-5.4-5.4c0-3,2.4-5.4,5.4-5.4c3,0,5.4,2.4,5.4,5.4C30.4,28,28,30.4,25,30.4 M25,16.7
			c-4.6,0-8.3,3.7-8.3,8.3c0,4.6,3.7,8.3,8.3,8.3c4.6,0,8.3-3.7,8.3-8.3C33.3,20.4,29.6,16.7,25,16.7"/>
		<path class="st2" d="M35.6,16.4c0,1.1-0.9,1.9-1.9,1.9c-1.1,0-1.9-0.9-1.9-1.9c0-1.1,0.9-1.9,1.9-1.9
			C34.7,14.4,35.6,15.3,35.6,16.4"/>
	</g>
</g>
<g id="Livello_5">
	<path id="Blue_9_" d="M47.2,50c1.5,0,2.8-1.2,2.8-2.8V2.8C50,1.2,48.8,0,47.2,0H2.8C1.2,0,0,1.2,0,2.8v44.5C0,48.8,1.2,50,2.8,50
		H47.2z"/>
	<g>
		<path class="st2" d="M7,18.9h7.6v24.4H7V18.9z M10.8,6.8c2.4,0,4.4,2,4.4,4.4c0,2.4-2,4.4-4.4,4.4c-2.4,0-4.4-2-4.4-4.4
			C6.4,8.7,8.4,6.8,10.8,6.8"/>
		<path class="st2" d="M19.4,18.9h7.3v3.3h0.1c1-1.9,3.5-3.9,7.2-3.9c7.7,0,9.1,5,9.1,11.6v13.4h-7.6V31.4c0-2.8,0-6.5-3.9-6.5
			c-3.9,0-4.5,3.1-4.5,6.3v12h-7.6V18.9z"/>
	</g>
</g>
</svg>
