<?xml version="1.0" encoding="UTF-8"?><svg id="a" xmlns="http://www.w3.org/2000/svg" viewBox="0 0 50.12 50.12"><defs><style>.c{fill:#fff;}.d{fill:#1d1d1b;}</style></defs><rect id="b" class="d" x=".02" y=".11" width="50" height="50" rx="2.76" ry="2.76"/><g><path class="c" d="M30.76,42.02h-11.25c-.57,0-1.03-.46-1.03-1.03s.46-1.03,1.03-1.03h11.25c.57,0,1.03,.46,1.03,1.03s-.46,1.03-1.03,1.03Z"/><path class="c" d="M25.14,42.02c-.57,0-1.03-.46-1.03-1.03v-8.46c0-.57,.46-1.03,1.03-1.03s1.03,.46,1.03,1.03v8.46c0,.57-.46,1.03-1.03,1.03Z"/><path class="c" d="M25.2,32.94h-.11c-2.59,0-5.02-1.01-6.85-2.84-1.83-1.83-2.84-4.26-2.84-6.85,0-.57,.46-1.03,1.03-1.03s1.03,.46,1.03,1.03c0,2.03,.79,3.95,2.23,5.39,1.44,1.44,3.35,2.23,5.39,2.23h.11c2.03,0,3.95-.79,5.39-2.23,1.44-1.44,2.23-3.35,2.23-5.39,0-.57,.46-1.03,1.03-1.03s1.03,.46,1.03,1.03c0,2.59-1.01,5.02-2.84,6.85-1.83,1.83-4.26,2.84-6.85,2.84Z"/><path class="c" d="M27.76,22.93v-1.32h3.01v-1.33h-3.01v-1.32h3.01v-1.33h-3.01v-1.32h3.01v-1.33h-3.01v-1.32h3.01v-.24c0-3.08-2.49-5.57-5.57-5.57h-.11c-3.08,0-5.57,2.49-5.57,5.57v.24h3.01v1.32h-3.01v1.33h3.01v1.32h-3.01v1.33h3.01v1.32h-3.01v1.33h3.01v1.32h-3.01v.33c0,3.08,2.49,5.57,5.57,5.57h.11c3.08,0,5.57-2.49,5.57-5.57v-.33h-3.01Z"/></g><g><path class="c" d="M30.76,42.02h-11.25c-.57,0-1.03-.46-1.03-1.03s.46-1.03,1.03-1.03h11.25c.57,0,1.03,.46,1.03,1.03s-.46,1.03-1.03,1.03Z"/><path class="c" d="M25.14,42.02c-.57,0-1.03-.46-1.03-1.03v-8.46c0-.57,.46-1.03,1.03-1.03s1.03,.46,1.03,1.03v8.46c0,.57-.46,1.03-1.03,1.03Z"/><path class="c" d="M25.2,32.94h-.11c-2.59,0-5.02-1.01-6.85-2.84-1.83-1.83-2.84-4.26-2.84-6.85,0-.57,.46-1.03,1.03-1.03s1.03,.46,1.03,1.03c0,2.03,.79,3.95,2.23,5.39,1.44,1.44,3.35,2.23,5.39,2.23h.11c2.03,0,3.95-.79,5.39-2.23,1.44-1.44,2.23-3.35,2.23-5.39,0-.57,.46-1.03,1.03-1.03s1.03,.46,1.03,1.03c0,2.59-1.01,5.02-2.84,6.85-1.83,1.83-4.26,2.84-6.85,2.84Z"/><path class="c" d="M27.76,22.93v-1.32h3.01v-1.33h-3.01v-1.32h3.01v-1.33h-3.01v-1.32h3.01v-1.33h-3.01v-1.32h3.01v-.24c0-3.08-2.49-5.57-5.57-5.57h-.11c-3.08,0-5.57,2.49-5.57,5.57v.24h3.01v1.32h-3.01v1.33h3.01v1.32h-3.01v1.33h3.01v1.32h-3.01v1.33h3.01v1.32h-3.01v.33c0,3.08,2.49,5.57,5.57,5.57h.11c3.08,0,5.57-2.49,5.57-5.57v-.33h-3.01Z"/></g></svg>