<?xml version="1.0" encoding="utf-8"?>
<!-- Generator: Adobe Illustrator 16.0.0, SVG Export Plug-In . SVG Version: 6.00 Build 0)  -->
<!DOCTYPE svg PUBLIC "-//W3C//DTD SVG 1.1//EN" "http://www.w3.org/Graphics/SVG/1.1/DTD/svg11.dtd">
<svg version="1.1" id="Livello_1" xmlns="http://www.w3.org/2000/svg" xmlns:xlink="http://www.w3.org/1999/xlink" x="0px" y="0px"
	 width="44.167px" height="44.833px" viewBox="0 0 44.167 44.833" enable-background="new 0 0 44.167 44.833" xml:space="preserve">
<g display="none">
	<circle display="inline" fill="#666666" cx="22.084" cy="22.417" r="20.998"/>
	<g display="inline">
		<rect x="23.378" y="14.478" fill-rule="evenodd" clip-rule="evenodd" fill="#BBBBBB" width="3.836" height="20.694"/>
		<rect x="17.357" y="18.848" fill-rule="evenodd" clip-rule="evenodd" fill="#DDDDDD" width="3.835" height="16.324"/>
		<rect x="10.976" y="21.881" fill-rule="evenodd" clip-rule="evenodd" fill="#FFFFFF" width="3.836" height="13.291"/>
		<rect x="29.355" y="9.661" fill-rule="evenodd" clip-rule="evenodd" fill="#AAAAAA" width="3.836" height="25.512"/>
	</g>
</g>
<g display="none">
	<circle display="inline" fill="#666666" cx="22.101" cy="22.435" r="20.998"/>
	<g display="inline">
		<rect x="18.762" y="20.245" fill="#CCCCCC" width="2.644" height="2.333"/>
		<rect x="22.837" y="20.245" fill="#CCCCCC" width="2.646" height="2.333"/>
		<rect x="27.001" y="20.245" fill="#CCCCCC" width="2.648" height="2.333"/>
		<rect x="18.755" y="23.917" fill="#CCCCCC" width="2.646" height="2.332"/>
		<rect x="22.83" y="23.917" fill="#CCCCCC" width="2.646" height="2.332"/>
		<rect x="26.998" y="23.917" fill="#CCCCCC" width="2.645" height="2.332"/>
		<rect x="18.762" y="27.743" fill="#CCCCCC" width="2.644" height="2.331"/>
		<rect x="14.556" y="23.917" fill="#CCCCCC" width="2.643" height="2.332"/>
		<rect x="14.562" y="27.743" fill="#CCCCCC" width="2.643" height="2.331"/>
		<rect x="22.837" y="27.743" fill="#CCCCCC" width="2.646" height="2.331"/>
		<rect x="27.001" y="27.743" fill="#CCCCCC" width="2.648" height="2.331"/>
		<path fill="#CCCCCC" d="M33.824,12.734l-3.314,0.003v2.106h-3.17V12.74L17.296,12.75v2.17H14.13v-2.167l-3.775,0.003v21.017h1.679
			h20.14l1.676-0.006L33.824,12.734z M32.174,32.1h-20.14V18.673h20.14V32.1z"/>
		<rect x="14.757" y="11.097" fill="#CCCCCC" width="1.982" height="3.274"/>
		<rect x="27.935" y="11.097" fill="#CCCCCC" width="1.982" height="3.274"/>
	</g>
</g>
<g display="none">
	<circle display="inline" fill="#666666" cx="22.092" cy="22.207" r="20.998"/>
	<path display="inline" fill="#CCCCCC" d="M13.231,20.068l-0.117-0.178h-0.176l-0.176-0.059l-0.178,0.118h-0.233l0.233-0.352v-0.353
		l-0.058-0.235l-0.294-0.352c0,0,0.118-0.292,0.059-0.292h-0.293l-0.352-0.411l-0.352-0.06l0.058-0.293l0.293-0.234v-0.176
		l0.234-0.234l-0.293-0.47h-0.234l-0.294-0.058l-0.176-0.234l-0.234,0.234l-0.118,0.352l0.118,0.293l0.117,0.293l-0.234,0.353
		l-0.586,0.586L9.241,19.01l0.294,0.88l-0.352,0.47v0.293l0.234,0.587l0.528,0.116l0.117,0.235l-0.117,0.411h0.293l-0.059,0.233
		l0.083,0.14l0.093,0.154l-0.294-0.058l0.118,0.176l0.352,0.469l-0.058,0.234l0.058,0.411l0.118,0.175l0.058,0.293l0.352,0.06
		l0.176,0.176l0.528,1.172l-0.41,0.177l-0.236-0.059l-0.468,0.176l0.292,0.294l-0.234,0.234l-0.058,0.352l-0.176,0.117l-0.293,0.059
		l-0.177-0.352l-0.176-0.234l-0.117-0.234l-0.353,0.116l-0.293-0.175l-0.234,0.233l0.059,0.235l-0.176,0.234l-0.176,0.176
		l0.176,0.06l0.234,0.292l-0.117,0.177l0.293,0.175l-0.293,0.178l0.468,0.234l-0.116,0.293l-0.177,0.116l0.352,0.294l0.06,0.233
		l0.176,0.06l0.059,0.293l0.234,0.41l-0.118,0.47l0.412,0.176l0.293-0.176l0.176,0.176l0.176,0.176l0.292,0.059l0.324-0.353
		l0.44-0.175l0.235-0.177l0.176,0.352l-0.059,0.353l0.236,0.293l0.293-0.058l0.176,0.352l-0.06,0.233l0.294,0.295l0.233,0.352
		l0.354,0.117l0.117,0.234l-0.235,0.294l0.177,0.233l0.177,0.176l0.293,0.118l0.41-0.176l0.118,0.41l0.118,0.352l0.292,0.117v0.235
		l-0.058,0.352l-0.118,0.352l0.353-0.06l0.058-0.408l0.234,0.468l0.529-0.116l-0.119-0.352l0.236-0.176l-0.47-0.353v-0.176
		l0.234-0.118v-0.176l0.412-0.294l-0.058-0.352L16.342,32.5l-0.352-0.058l-0.178-0.294l0.06-0.471l0.294-0.057l0.116-0.527
		l0.12-0.236l0.234-0.117v-0.526l0.352-0.47l0.41-0.177l0.469-0.117l0.294,0.234l0.116-0.234l-0.174-0.293l0.233-0.118l0.294,0.411
		l0.293-0.411l0.176,0.294l0.059,0.352l0.235,0.06l0.292,0.233l0.235-0.116l0.235-0.294v-0.293l0.292,0.293l0.294,0.177
		l-0.059,0.233l0.235,0.118v-0.528l0.176-0.059l0.235,0.176h0.176l-0.176-0.41l0.059-0.176l0.235-0.176l0.058,0.293l0.177,0.176
		l0.175-0.293l0.237-0.117l0.233,0.293l0.177,0.293l-0.059,0.234l0.233,0.118v0.294l0.354-0.118l0.058,0.293h0.293l0.176-0.117
		l0.235-0.117l0.294,0.234l0.117-0.175l0.177,0.115l0.175,0.118l0.118,0.176l0.176,0.059l0.293,0.059l0.176,0.177l0.235,0.177
		l0.177-0.119l0.176-0.117l0.234,0.06l0.059,0.293l0.059,0.292h0.41l0.293,0.235l0.176,0.116l0.294-0.057h0.293l0.292-0.176
		l0.119-0.236l0.234-0.291l0.178-0.295l0.176,0.354l0.176-0.412l0.233,0.177v0.409l0.586,0.119l0.353,0.057l0.469,0.235l0.353-0.176
		l0.293-0.116l0.234-0.235h0.294l0.352,0.059l0.057-0.175h0.294l0.294,0.175l0.292,0.058l0.646-0.058l0.292-0.059l0.353-0.116h0.469
		l0.47,0.116l0.235-0.116l-0.118-0.177l-0.293-0.118l-0.41-0.176l-0.587-0.352l-0.119-0.234v-0.235l-0.176,0.176
		c0,0-0.204,0-0.234-0.058c-0.03-0.059-0.234-0.235-0.234-0.235l-0.235,0.117v-0.234l0.059-0.234l0.293-0.234l-0.234-0.06
		l-0.352-0.175l-0.177,0.352l-0.235-0.177l-0.176,0.177l-0.293-0.059l-0.234-0.176l0.176-0.234l0.176-0.176H31.95h-0.233
		l-0.177-0.06v-0.233l-0.117-0.352l-0.352-0.059l-0.06-0.353h-0.235l-0.118-0.235h-0.175h-0.235l-0.176-0.352l-0.294-0.176
		l-0.175-0.234l-0.47,0.353l-0.058-0.353H28.9v-0.235l-0.176-0.175l0.115-0.353l0.118-0.352v-0.234h-0.232h-0.237l-0.234-0.352
		l-0.06-0.646l-0.059-0.997l-0.058-0.352l0.176-0.411l0.411-0.528l0.528-0.82l0.352-0.528l0.059-0.234l0.234-0.233l0.117-0.236
		l-0.176-0.115h-0.234l-0.177-0.06l-0.175,0.117l-0.236-0.117l-0.232,0.117l-0.412,0.058l-0.059,0.412l-0.236-0.118l-0.233,0.118
		l-0.176,0.176l-0.294,0.058l-0.176-0.293l0.059-0.176l-0.292-0.177l-0.059-0.469l-0.117-0.234l0.176-0.234l0.059-0.176
		l-0.176-0.117l-0.118-0.234l0.06-0.353h-0.236l-0.117-0.47l0.353-0.176l-0.06-0.293V16.84l0.47-0.585l0.119-0.294l-0.06-0.177
		l0.118-0.232v-0.178l-0.118-0.234v-0.176l0.177-0.118v-0.175l0.117-0.353l-0.176-0.352l0.176-0.234l-0.176-0.41l-0.176-0.117
		h-0.293V13.03l0.235-0.059l0.234-0.295l0.294,0.059l0.234-0.292l-0.059-0.176v-0.528l-0.235-0.234l-0.235-0.117l-0.176-0.176
		h-0.586l-0.292-0.177V10.8l-0.236-0.293l-0.177-0.059l-0.175,0.116l-0.235-0.116l-0.211,0.118l-0.316-0.002l-0.118-0.233
		l-0.176-0.118h-0.235V9.98l0.117-0.234l-0.176-0.295L24.087,9.57h-0.235l-0.177,0.058L23.5,9.746h-0.411v0.41
		c0,0-0.264,0.469-0.292,0.409c-0.029-0.058-0.235,0.06-0.235,0.06l0.059,0.235l-0.059,0.232l0.059,0.353l0.117,0.235
		c0,0-0.235,0.293-0.235,0.234s0.294,0.177,0.294,0.177l0.352,0.116l0.234-0.234l0.235,0.352l0.118,0.295l-0.292,0.115l-0.118,0.295
		l-0.117,0.352l0.235,0.352l0.292,0.293l0.118,0.353l-0.293,0.116L23.5,14.789l-0.234-0.059h-0.235l-0.234,0.116l-0.176-0.116
		l0.117-0.411l-0.292-0.176l-0.294-0.117l0.059-0.234v-0.176l-0.178-0.177l0.178-0.175l-0.117-0.234l-0.295-0.235l-0.234,0.117
		l-0.176-0.177l-0.235,0.177l-0.293,0.06l-0.353,0.293l-0.411,0.059l-0.235-0.176l-0.176,0.234l0.059,0.293l-0.118,0.352
		l-0.234-0.234l-0.353,0.176h-0.292l-0.471-0.176l-0.233,0.118l-0.294-0.822l-0.353-0.233l0.059-0.234l-0.117-0.295l-0.004-0.41
		l0.121-0.47l-0.059-0.293l-0.175,0.177h-0.177l-0.058,0.293h-0.176l-0.235-0.177v-0.233l-0.234-0.06L15.93,11.27l-0.235,0.175
		v0.411l-0.176,0.059l-0.059,0.293l0.293,0.117v0.295l-0.059,0.292l0.235,0.235v0.352l-0.176,0.176l-0.059,0.352l-0.176,0.293v0.353
		l-0.234,0.059l-0.176,0.352l-0.118,0.293l-0.235,0.178l-0.41,0.352l-0.235,0.176l-0.235,0.176l0.059,0.41L13.877,16.9l-0.235,0.059
		l-0.292,0.234v0.41l0.058,0.235l-0.292,0.292l0.235,0.117v0.294l0.292,0.177l0.294,0.292l-0.059,0.235l-0.176,0.234l-0.176,0.41
		l-0.071,0.196L13.231,20.068z"/>
</g>
<g>
	<circle fill="#666666" cx="22.092" cy="22.207" r="20.997"/>
	<g>
		<path fill="#CCCCCC" d="M33.683,31.642H10.489c-0.639,0-1.159,0.521-1.159,1.162c0,0.64,0.521,1.158,1.159,1.158h23.194
			c0.643,0,1.16-0.519,1.16-1.158C34.841,32.163,34.325,31.642,33.683,31.642L33.683,31.642z M33.683,31.642"/>
		<path fill="#CCCCCC" d="M11.939,28.628c-0.642,0-1.158,0.52-1.158,1.158c0,0.641,0.517,1.162,1.158,1.162h20.292
			c0.643,0,1.162-0.521,1.162-1.162c0-0.639-0.52-1.158-1.162-1.158h-0.289V18.192h0.289c0.322,0,0.582-0.26,0.582-0.581
			c0-0.318-0.26-0.579-0.582-0.579H11.939c-0.32,0-0.577,0.261-0.577,0.579c0,0.321,0.257,0.581,0.577,0.581h0.289v10.437H11.939z
			 M29.623,18.192v10.437h-3.479V18.192H29.623z M23.826,18.192v10.437h-3.479V18.192H23.826z M14.548,18.192h3.479v10.437h-3.479
			V18.192z M14.548,18.192"/>
		<path fill="#CCCCCC" d="M10.489,15.991h23.204c0.643,0,1.162-0.52,1.162-1.161c0-0.51-0.328-0.941-0.785-1.098L22.562,8.553
			c-0.303-0.137-0.648-0.137-0.949,0l-11.599,5.218c-0.499,0.225-0.774,0.769-0.657,1.302C9.47,15.608,9.943,15.991,10.489,15.991
			L10.489,15.991z M10.489,15.991"/>
	</g>
</g>
</svg>
